# xmcd
#
# Track frame offsets:
#	150
#	9969
#	29707
#	50519
#	72104
#	100037
#	124946
#	155272
#	176425
#	204115
#	225228
#	264754
#
# Disc length: 3773 seconds
# Revision: 0
# Processed by: cddbd v1.5.2PL0 Copyright (c) Steve Scherf et al.
# Submitted via: dBpowerAMP V12.0
#
DISCID=880ebb0c
DTITLE=Divinity - The Singularity
DYEAR=2009
DGENRE=Metal
TTITLE0=Abiogenesis
TTITLE1=Beg to Consume
TTITLE2=Lay in the Bed You've Made
TTITLE3=Emergent
TTITLE4=Transformation
TTITLE5=Monsters Are Real
TTITLE6=Embrace the Uncertain
TTITLE7=Formless Dimension
TTITLE8=Approaching the Singularity
TTITLE9=Lay in the Bed You've Made (Controlled Chaos Mix)
TTITLE10=Approaching the Singularity (Controlled Chaos Mix)
TTITLE11=DATA
EXTD=
EXTT0=
EXTT1=
EXTT2=
EXTT3=
EXTT4=
EXTT5=
EXTT6=
EXTT7=
EXTT8=
EXTT9=
EXTT10=
EXTT11=
PLAYORDER=
